# Blender 4.3.2
# www.blender.org
mtllib button.mtl
o Cube.001
v 0.000000 -0.050000 -1.000000
v 0.000000 -0.050000 1.000000
v -1.000000 -0.050000 0.000000
v 1.000000 -0.050000 0.000000
v 0.500000 -0.050000 1.000000
v 0.500000 -0.050000 -1.000000
v 1.000000 -0.050000 -0.500000
v -1.000000 -0.050000 -0.500000
v -0.500000 -0.050000 -1.000000
v -0.500000 -0.050000 1.000000
v -1.000000 -0.050000 0.500000
v 1.000000 -0.050000 0.500000
v 0.000000 0.268952 1.000000
v 0.000000 0.500000 0.749824
v 0.000000 0.384476 0.966483
v 0.000000 0.469045 0.874912
v 0.000000 0.268952 -1.000000
v 0.000000 0.500000 -0.749824
v 0.000000 0.384476 -0.966483
v 0.000000 0.469045 -0.874912
v 1.000000 0.268952 -0.000000
v 0.749824 0.500000 -0.000000
v 0.966483 0.384476 -0.000000
v 0.874912 0.469045 -0.000000
v -1.000000 0.268952 -0.000000
v -0.749824 0.500000 -0.000000
v -0.966483 0.384476 -0.000000
v -0.874912 0.469045 -0.000000
v 0.396374 0.500000 -0.749824
v 0.730283 0.269717 -1.000000
v 0.479039 0.469148 -0.874912
v 0.601258 0.384859 -0.966483
v 0.730283 0.269717 1.000000
v 0.396374 0.500000 0.749824
v 0.601258 0.384859 0.966483
v 0.479039 0.469148 0.874912
v -0.749824 0.500000 -0.396374
v -1.000000 0.269717 -0.730283
v -0.874912 0.469148 -0.479039
v -0.966483 0.384859 -0.601258
v 1.000000 0.269717 -0.730283
v 0.749824 0.500000 -0.396374
v 0.966483 0.384859 -0.601258
v 0.874912 0.469148 -0.479039
v -0.396374 0.500000 0.749824
v -0.730283 0.269717 1.000000
v -0.479039 0.469148 0.874912
v -0.601258 0.384859 0.966483
v -0.730283 0.269717 -1.000000
v -0.396374 0.500000 -0.749824
v -0.601258 0.384859 -0.966483
v -0.479039 0.469148 -0.874912
v 0.749824 0.500000 0.396374
v 1.000000 0.269717 0.730283
v 0.874912 0.469148 0.479039
v 0.966483 0.384859 0.601258
v -1.000000 0.269717 0.730283
v -0.749824 0.500000 0.396374
v -0.966483 0.384859 0.601258
v -0.874912 0.469148 0.479039
v 0.850000 -0.050000 -1.000000
v 1.000000 -0.050000 -0.850000
v 1.000000 0.150000 -0.850000
v 0.850000 0.150000 -1.000000
v 1.000000 -0.050000 0.850000
v 0.850000 -0.050000 1.000000
v 0.850000 0.150000 1.000000
v 1.000000 0.150000 0.850000
v -0.850000 -0.050000 1.000000
v -1.000000 -0.050000 0.850000
v -1.000000 0.150000 0.850000
v -0.850000 0.150000 1.000000
v -1.000000 -0.050000 -0.850000
v -0.850000 -0.050000 -1.000000
v -0.850000 0.150000 -1.000000
v -1.000000 0.150000 -0.850000
vn -0.4330 0.2257 0.8727
vn -0.0000 -0.0000 1.0000
vn -0.3382 0.4244 0.8399
vn 1.0000 -0.0000 -0.0000
vn 0.8727 0.2257 -0.4330
vn 0.8399 0.4244 -0.3382
vn -0.0000 1.0000 -0.0000
vn -0.0001 0.9708 0.2399
vn -0.0000 0.9708 0.2399
vn -0.0003 0.7351 0.6780
vn -0.0000 0.7351 0.6780
vn -0.0002 0.2789 0.9603
vn -0.0000 0.2789 0.9603
vn 0.0001 0.9708 -0.2399
vn -0.0000 0.9708 -0.2399
vn 0.0003 0.7351 -0.6780
vn -0.0000 0.7351 -0.6780
vn 0.0002 0.2789 -0.9603
vn -0.0000 0.2789 -0.9603
vn 0.2399 0.9708 0.0001
vn 0.2399 0.9708 -0.0000
vn 0.6780 0.7351 0.0003
vn 0.6780 0.7351 -0.0000
vn 0.9603 0.2789 0.0002
vn 0.9603 0.2789 -0.0000
vn -0.2399 0.9708 -0.0001
vn -0.2399 0.9708 -0.0000
vn -0.6780 0.7351 -0.0003
vn -0.6780 0.7351 -0.0000
vn -0.9603 0.2789 -0.0002
vn -0.9603 0.2789 -0.0000
vn -0.0001 0.9708 -0.2399
vn -0.0003 0.7351 -0.6780
vn -0.0002 0.2789 -0.9603
vn -0.2399 0.9708 0.0001
vn -0.6780 0.7351 0.0003
vn -0.9603 0.2789 0.0002
vn 0.0001 0.9708 0.2399
vn 0.0003 0.7351 0.6780
vn 0.0002 0.2789 0.9603
vn 0.2399 0.9708 -0.0001
vn 0.6780 0.7351 -0.0003
vn 0.9603 0.2789 -0.0002
vn -0.3382 0.4244 -0.8399
vn -0.8399 0.4244 -0.3382
vn -0.5005 0.7065 -0.5005
vn -0.3444 0.8734 -0.3444
vn -0.1453 0.9787 -0.1453
vn -0.8399 0.4244 0.3382
vn -0.5005 0.7065 0.5005
vn -0.3444 0.8734 0.3444
vn -0.1453 0.9787 0.1453
vn 0.1453 0.9787 0.1453
vn 0.3444 0.8734 0.3444
vn 0.5005 0.7065 0.5005
vn 0.3382 0.4244 -0.8399
vn 0.5005 0.7065 -0.5005
vn 0.3444 0.8734 -0.3444
vn 0.1453 0.9787 -0.1453
vn 0.7071 -0.0000 -0.7071
vn 0.4330 0.2257 -0.8727
vn -0.8727 0.2257 -0.4330
vn -1.0000 -0.0000 -0.0000
vn -0.8727 0.2257 0.4330
vn 0.7071 -0.0000 0.7071
vn -0.7071 -0.0000 0.7071
vn -0.0000 -0.0000 -1.0000
vn -0.4330 0.2257 -0.8727
vn -0.7071 -0.0000 -0.7071
vn 0.5774 0.5774 0.5774
vt 0.537500 0.981250
vt 0.375000 0.981250
vt 0.375000 0.937500
vt 0.375000 0.875000
vt 0.375000 0.812500
vt 0.375000 0.768750
vt 0.187500 0.243750
vt 0.337147 0.438290
vt 0.545782 0.842816
vt 0.567429 0.966285
vt 0.537500 0.731250
vt 0.375000 0.731250
vt 0.375000 0.687500
vt 0.375000 0.625000
vt 0.375000 0.562500
vt 0.375000 0.518750
vt 0.187500 0.168750
vt 0.337147 0.303432
vt 0.545782 0.603544
vt 0.567429 0.716285
vt 0.614755 0.579947
vt 0.318777 0.309152
vt 0.524720 0.539594
vt 0.506800 0.488171
vt 0.299592 0.255689
vt 0.572257 0.421120
vt 0.577098 0.410400
vt 0.351457 0.247775
vt 0.705291 0.483496
vt 0.779606 0.576467
vt 0.807015 0.644102
vt 0.758180 0.680877
vt 0.660112 0.640753
vt 0.162846 0.161969
vt 0.750000 0.750000
vt 0.000000 0.000000
vt 0.625000 0.812500
vt 0.625000 0.875000
vt 0.637706 0.439357
vt 0.188010 0.129780
vt 0.750000 0.500000
vt 0.625000 0.312500
vt 0.625000 0.375000
vt 0.545782 0.364272
vt 0.337147 0.168573
vt 0.546236 0.538978
vt 0.157734 0.131000
vt 0.625000 0.625000
vt 0.625000 0.562500
vt 0.827718 0.600953
vt 0.844684 0.672691
vt 0.875000 0.625000
vt 0.875000 0.687500
vt 0.625000 0.062500
vt 0.625000 0.125000
vt 0.545782 0.125000
vt 0.337147 0.033715
vt 0.610794 0.445682
vt 0.687500 0.500000
vt 0.625000 0.437500
vt 0.567429 0.466285
vt 0.764628 0.503990
vt 0.875000 0.562500
vt 0.625000 0.187500
vt 0.567429 0.216285
vt 0.794797 0.720952
vt 0.812500 0.750000
vt 0.625000 0.937500
vt 0.556458 0.596247
vt 0.595768 0.699711
vt 0.585271 0.614152
vt 0.117928 0.075811
vt 0.757071 0.486689
vt 0.866576 0.695923
vt 0.820923 0.741577
vt 0.084235 0.092658
vt 0.540765 0.594842
vt 0.092658 0.067388
vt 0.594842 0.432612
vt 0.375000 0.500000
vt 0.537500 0.231250
vt 0.375000 0.231250
vt 0.375000 0.187500
vt 0.375000 0.125000
vt 0.375000 0.062500
vt 0.375000 0.018750
vt 0.187500 0.018750
vt 0.500000 0.750000
vt 0.375000 0.750000
vt 0.375000 0.000000
vt 0.537500 0.481250
vt 0.375000 0.481250
vt 0.375000 0.437500
vt 0.375000 0.375000
vt 0.375000 0.312500
vt 0.375000 0.268750
vt 0.187500 0.093750
vt 0.375000 0.250000
s 1
usemtl Material.001
f 72/1/1 69/2/2 10/3/2 2/4/2 5/5/2 66/6/2 67/7/2 33/8/2 13/9/2 46/10/3
f 68/11/4 65/12/4 12/13/4 4/14/4 7/15/4 62/16/4 63/17/5 41/18/6 21/19/4 54/20/4
f 14/21/7 34/22/7 53/23/7 22/24/7 42/25/7 29/26/7 18/27/7 50/28/7 37/29/7 26/30/7 58/31/7 45/32/7
f 34/22/8 14/21/9 16/33/9 36/34/8
f 36/34/10 16/33/11 15/35/11 35/36/10
f 35/37/12 15/38/13 13/9/13 33/8/12
f 50/28/14 18/27/15 20/39/15 52/40/14
f 52/40/16 20/39/17 19/41/17 51/36/16
f 51/42/18 19/43/19 17/44/19 49/45/18
f 42/25/20 22/24/21 24/46/21 44/47/20
f 44/47/22 24/46/23 23/48/23 43/36/22
f 43/49/24 23/48/25 21/19/25 41/18/24
f 58/31/26 26/30/27 28/50/27 60/51/26
f 60/51/28 28/50/29 27/52/29 59/53/28
f 59/54/30 27/55/31 25/56/31 57/57/30
f 18/27/15 29/26/32 31/58/32 20/39/15
f 20/39/17 31/58/33 32/59/33 19/41/17
f 19/43/19 32/60/34 30/61/34 17/44/19
f 26/30/27 37/29/35 39/62/35 28/50/27
f 28/50/29 39/62/36 40/63/36 27/52/29
f 27/55/31 40/64/37 38/65/37 25/56/31
f 14/21/9 45/32/38 47/66/38 16/33/9
f 16/33/11 47/66/39 48/67/39 15/35/11
f 15/38/13 48/68/40 46/10/40 13/9/13
f 22/24/21 53/23/41 55/69/41 24/46/21
f 24/46/23 55/69/42 56/70/42 23/71/23
f 23/71/25 56/70/43 54/20/43 21/19/25
f 49/36/44 38/36/45 40/36/46 51/36/46
f 51/72/47 40/73/47 39/62/47 52/40/47
f 52/40/48 39/62/48 37/29/48 50/28/48
f 57/36/49 46/36/3 48/36/50 59/36/50
f 59/74/51 48/75/51 47/66/51 60/51/51
f 60/51/52 47/66/52 45/32/52 58/31/52
f 53/23/53 34/22/53 36/34/53 55/69/53
f 55/69/54 36/34/54 35/76/54 56/77/54
f 56/36/55 35/36/55 33/36/55 54/36/55
f 41/36/6 30/36/56 32/36/57 43/36/57
f 43/78/58 32/79/58 31/58/58 44/47/58
f 44/47/59 31/58/59 29/26/59 42/25/59
f 63/17/5 62/16/60 61/80/60 64/36/61
f 76/81/62 73/82/63 8/83/63 3/84/63 11/85/63 70/86/63 71/87/64 57/57/49 25/56/63 38/65/45
f 67/88/65 66/89/65 65/12/65 68/11/65
f 69/90/66 72/36/1 71/87/64 70/86/66
f 64/91/61 61/92/67 6/93/67 1/94/67 9/95/67 74/96/67 75/97/68 49/45/44 17/44/67 30/61/56
f 75/97/68 74/96/69 73/98/69 76/36/62
f 63/17/5 64/36/61 30/61/56 41/36/6
f 38/65/45 49/45/44 75/97/68 76/81/62
f 72/36/1 46/36/3 57/57/49 71/87/64
f 67/88/70 68/11/70 54/20/70 33/36/70
