# Blender 4.3.2
# www.blender.org
mtllib flatter_needy.mtl
o Background
v -0.256271 0.144986 0.854439
v -0.256271 0.095390 0.900955
v 0.256242 0.095390 0.900924
v 0.256242 0.144986 0.854407
v -0.256302 0.149900 -0.367408
v -0.854469 0.144098 -0.367621
v -0.900986 0.095390 -0.367621
v -0.256302 0.095391 -0.900926
v -0.256302 0.192384 -0.853825
v 0.255783 0.149900 -0.367866
v 0.256211 0.192384 -0.853857
v 0.256211 0.095391 -0.900957
v 0.900894 0.095390 -0.367653
v 0.854378 0.144098 -0.367653
v -0.871049 0.095390 0.900955
v -0.900955 0.095390 0.871049
v -0.854439 0.144986 0.824533
v -0.824533 0.144986 0.854439
v 0.900925 0.095390 0.871018
v 0.871021 0.095390 0.900924
v 0.854409 0.144986 0.824502
v 0.824504 0.144986 0.854407
v -0.900986 0.095390 -0.871020
v -0.871081 0.095390 -0.900926
v -0.824565 0.188151 -0.854398
v -0.854469 0.188098 -0.824504
v 0.870990 0.095390 -0.900957
v 0.900894 0.095390 -0.871052
v 0.854378 0.188098 -0.824535
v 0.824473 0.188151 -0.854430
v -0.267904 0.219393 -0.430431
v -0.267901 0.245032 -0.817847
v -0.774314 0.245444 -0.817849
v -0.791471 0.241642 -0.796766
v -0.791469 0.214451 -0.430596
v 0.267491 0.219393 -0.430844
v 0.791377 0.214451 -0.430673
v 0.791380 0.241642 -0.796797
v 0.774223 0.245444 -0.817881
v 0.267754 0.245033 -0.817878
v -0.256272 0.145121 0.824535
v 0.256231 0.145121 0.824525
v 0.900896 0.095390 -0.233164
v 0.854380 0.144986 -0.234952
v 0.255801 0.150304 -0.235157
v -0.256301 0.150304 -0.234715
v -0.854468 0.144986 -0.234921
v -0.900985 0.095390 -0.233132
v -0.256302 0.095389 -0.367408
v 0.255783 0.095389 -0.367866
v -0.000259 0.095389 -0.367637
v -0.000259 0.149900 -0.367637
v -0.000250 0.150304 -0.234936
v -0.000020 0.145121 0.824530
v -0.000022 0.144986 0.854415
v -0.000014 0.095390 0.900939
v -0.900977 0.095390 0.042913
v -0.854461 0.144986 0.029943
v -0.256294 0.149008 0.030097
v -0.000193 0.149008 0.029930
v 0.255908 0.149008 0.029764
v 0.854387 0.144986 0.029911
v 0.900903 0.095390 0.042882
v -0.256303 0.150322 -0.367637
v 0.255783 0.150322 -0.367637
v -0.256303 0.183322 -0.767194
v 0.255783 0.183322 -0.767194
v -0.207914 0.255261 -0.441451
v 0.207395 0.255261 -0.441451
v 0.207395 0.293433 -0.693380
v -0.207914 0.293433 -0.693380
v -0.256303 0.229146 -0.369328
v -0.241020 0.246708 -0.385002
v 0.255783 0.229146 -0.369328
v 0.240500 0.246708 -0.385002
v 0.255783 0.288995 -0.765224
v 0.240500 0.301985 -0.749829
v -0.256303 0.288995 -0.765224
v -0.241020 0.301985 -0.749829
v -0.191088 0.248554 -0.460197
v 0.190569 0.248554 -0.460197
v 0.190569 0.281473 -0.677462
v -0.191088 0.281473 -0.677462
v -0.982354 0.000000 0.239478
v -0.912705 0.000000 0.239478
v -0.982354 -0.000000 -0.239419
v -0.917160 -0.000000 -0.239419
v -0.982354 0.119267 0.239478
v -0.917160 0.119267 0.239478
v -0.917160 0.119267 -0.239419
v -0.982354 0.119267 -0.239419
v -0.936615 0.154926 0.239478
v -0.962906 0.154926 0.239478
v -0.962906 0.154926 -0.239419
v -0.936615 0.154926 -0.239419
v -0.949761 -0.000000 -0.239419
v -0.949761 0.000000 0.239478
v -1.000031 0.000000 0.201831
v -1.000031 0.135566 0.201831
v -0.970482 0.176098 0.201831
v -0.930542 0.176098 0.201831
v -0.900986 0.135566 0.201831
v -0.900986 0.000000 0.201831
v -1.000031 -0.000000 -0.201768
v -1.000031 0.135566 -0.201768
v -0.970482 0.176098 -0.201768
v -0.930542 0.176098 -0.201768
v -0.900986 0.135566 -0.201768
v -0.900986 -0.000000 -0.201768
v 0.982293 -0.000000 -0.239480
v 0.912645 -0.000000 -0.239480
v 0.982293 0.000000 0.239417
v 0.917100 0.000000 0.239417
v 0.982293 0.119267 -0.239480
v 0.917100 0.119267 -0.239480
v 0.917100 0.119267 0.239417
v 0.982293 0.119267 0.239417
v 0.936555 0.154926 -0.239480
v 0.962846 0.154926 -0.239480
v 0.962846 0.154926 0.239417
v 0.936555 0.154926 0.239417
v 0.949701 0.000000 0.239417
v 0.949701 -0.000000 -0.239480
v 0.999971 -0.000000 -0.201833
v 0.999971 0.135566 -0.201833
v 0.970422 0.176098 -0.201833
v 0.930482 0.176098 -0.201833
v 0.900926 0.135566 -0.201833
v 0.900926 -0.000000 -0.201833
v 0.999971 0.000000 0.201766
v 0.999971 0.135566 0.201766
v 0.970422 0.176098 0.201766
v 0.930482 0.176098 0.201766
v 0.900926 0.135566 0.201766
v 0.900926 0.000000 0.201766
v 0.239449 0.000000 0.982323
v 0.239449 0.000000 0.912674
v -0.239448 0.000000 0.982323
v -0.239448 0.000000 0.917129
v 0.239449 0.119268 0.982323
v 0.239449 0.119268 0.917129
v -0.239448 0.119268 0.917129
v -0.239448 0.119268 0.982323
v 0.239449 0.154926 0.936584
v 0.239449 0.154926 0.962875
v -0.239448 0.154926 0.962875
v -0.239448 0.154926 0.936584
v -0.239448 0.000000 0.949730
v 0.239449 0.000000 0.949730
v 0.201802 0.000000 1.000000
v 0.201802 0.135566 1.000000
v 0.201802 0.176098 0.970451
v 0.201802 0.176098 0.930511
v 0.201802 0.135566 0.900955
v 0.201802 0.000000 0.900955
v -0.201797 0.000000 1.000000
v -0.201797 0.135566 1.000000
v -0.201797 0.176098 0.970451
v -0.201797 0.176098 0.930511
v -0.201797 0.135566 0.900955
v -0.201797 0.000000 0.900955
vn -0.0000 0.6841 0.7294
vn -0.0318 0.6943 0.7189
vn -0.0159 0.6893 0.7243
vn -0.7294 0.6841 -0.0000
vn 0.7294 0.6841 -0.0000
vn 0.0160 0.6893 0.7243
vn 0.0318 0.6943 0.7189
vn -0.8197 0.5716 0.0374
vn -0.8389 0.5437 0.0249
vn -0.6041 0.7942 -0.0660
vn -0.6823 0.7310 -0.0068
vn -0.0012 0.4427 -0.8967
vn -0.0012 0.4658 -0.8849
vn -0.0159 0.6893 -0.7243
vn -0.0318 0.6942 -0.7190
vn -0.0537 0.9646 0.2583
vn 0.0578 0.9983 -0.0053
vn -0.0063 0.9973 0.0728
vn -0.0204 0.9727 0.2312
vn -0.0033 1.0000 0.0024
vn -0.0023 1.0000 0.0032
vn -0.0032 1.0000 0.0031
vn -0.0045 1.0000 0.0024
vn 0.0012 0.4658 -0.8849
vn 0.0011 0.4427 -0.8967
vn 0.0318 0.6943 -0.7190
vn 0.0160 0.6893 -0.7243
vn 0.8389 0.5437 0.0249
vn 0.8197 0.5716 0.0374
vn 0.6823 0.7310 -0.0067
vn 0.6041 0.7942 -0.0660
vn 0.0527 0.9649 0.2574
vn 0.0184 0.9728 0.2309
vn 0.0063 0.9973 0.0729
vn -0.0581 0.9983 -0.0072
vn -0.0000 1.0000 0.0047
vn 0.0023 1.0000 0.0032
vn 0.0028 1.0000 0.0037
vn -0.0000 1.0000 0.0049
vn 0.0033 1.0000 0.0024
vn 0.0045 1.0000 0.0024
vn -0.4257 0.7985 0.4257
vn 0.4257 0.7985 0.4257
vn -0.5769 0.5786 -0.5765
vn -0.5580 0.6420 -0.5258
vn -0.5539 0.6539 -0.5154
vn 0.5769 0.5786 -0.5765
vn 0.5539 0.6539 -0.5154
vn 0.5580 0.6420 -0.5258
vn 0.9997 0.0239 0.0034
vn 0.9999 0.0154 0.0039
vn -0.0015 0.5510 -0.8345
vn -0.0023 0.9998 -0.0176
vn -0.5075 0.7571 -0.4113
vn -0.1838 0.9811 0.0608
vn -0.6909 0.7203 0.0623
vn -0.0097 0.9546 0.2976
vn -0.0065 0.9694 0.2453
vn 0.0062 0.9694 0.2454
vn 0.0094 0.9547 0.2975
vn 0.6908 0.7203 0.0623
vn 0.1820 0.9814 0.0607
vn 0.5075 0.7571 -0.4113
vn 0.0022 0.9998 -0.0193
vn 0.0015 0.5510 -0.8345
vn -0.9999 0.0157 0.0030
vn -0.9997 0.0242 0.0026
vn -0.0001 1.0000 0.0034
vn -0.0001 1.0000 0.0023
vn 0.0015 0.9999 0.0135
vn -0.0000 1.0000 0.0045
vn 0.0001 1.0000 0.0023
vn 0.7278 0.6857 -0.0012
vn 0.7279 0.6857 -0.0011
vn 0.0082 1.0000 -0.0012
vn 0.0085 1.0000 -0.0012
vn -0.0000 1.0000 0.0009
vn -0.0000 1.0000 -0.0030
vn -0.0086 1.0000 -0.0012
vn -0.0083 1.0000 -0.0011
vn -0.7279 0.6857 -0.0011
vn -0.7278 0.6858 -0.0011
vn 1.0000 -0.0000 -0.0000
vn -0.0009 -0.0000 -1.0000
vn -1.0000 0.0003 -0.0008
vn 0.0319 0.8679 0.4956
vn -0.0160 0.6893 0.7243
vn -0.7024 0.7037 0.1065
vn -0.0000 0.6659 0.7461
vn 0.7024 0.7037 0.1065
vn -0.0000 0.7643 -0.6449
vn -0.0000 0.0214 0.9998
vn -0.0000 0.0186 -0.9998
vn -1.0000 -0.0000 -0.0000
vn -0.0000 0.9887 0.1498
vn -0.0207 0.9933 0.1138
vn 0.0207 0.9933 0.1138
vn -0.0207 0.9824 0.1855
vn 0.0207 0.9824 0.1855
vn -0.0330 0.9949 0.0957
vn 0.0331 0.9949 0.0957
vn -0.0329 0.9786 0.2033
vn 0.0329 0.9786 0.2033
vn 0.9854 0.1676 0.0296
vn 0.5045 0.8625 0.0388
vn 0.2913 0.4108 0.8639
vn 0.5926 0.0771 0.8018
vn -0.0000 -0.0000 1.0000
vn -0.2894 0.4148 0.8627
vn 0.9995 0.0014 0.0302
vn 0.6488 0.0108 0.7609
vn 0.6030 0.0694 -0.7947
vn 0.6408 -0.0000 -0.7677
vn -0.0000 -0.0000 -1.0000
vn 0.2955 0.4167 -0.8597
vn -0.6285 -0.0000 0.7778
vn -0.5916 0.0690 0.8033
vn -0.9854 0.1666 0.0348
vn -0.9993 -0.0000 0.0380
vn -0.5052 0.8621 0.0401
vn -0.6285 -0.0000 -0.7778
vn -0.5916 0.0690 -0.8033
vn -0.2894 0.4148 -0.8627
vn -0.9854 0.1666 -0.0349
vn -0.9993 -0.0000 -0.0379
vn -0.5052 0.8621 -0.0401
vn 0.5046 0.8625 -0.0389
vn 0.9855 0.1669 -0.0323
vn 0.9994 0.0001 -0.0346
vn -0.9854 0.1676 -0.0296
vn -0.5045 0.8625 -0.0388
vn -0.2913 0.4108 -0.8639
vn -0.5926 0.0771 -0.8018
vn 0.2894 0.4148 -0.8627
vn -0.9995 0.0014 -0.0302
vn -0.6488 0.0108 -0.7609
vn -0.6031 0.0695 0.7947
vn -0.6408 -0.0000 0.7677
vn -0.2955 0.4167 0.8597
vn 0.6285 -0.0000 -0.7778
vn 0.5916 0.0690 -0.8033
vn 0.9854 0.1666 -0.0348
vn 0.9993 -0.0001 -0.0379
vn 0.5052 0.8621 -0.0401
vn 0.6285 -0.0000 0.7778
vn 0.5916 0.0690 0.8033
vn 0.2894 0.4148 0.8627
vn 0.9854 0.1666 0.0349
vn 0.9993 -0.0000 0.0378
vn 0.5052 0.8621 0.0401
vn -0.5046 0.8625 0.0389
vn -0.9855 0.1669 0.0323
vn -0.9994 0.0001 0.0346
vn 0.0296 0.1676 -0.9854
vn 0.0388 0.8625 -0.5045
vn 0.8639 0.4108 -0.2913
vn 0.8018 0.0771 -0.5926
vn 0.8627 0.4148 0.2894
vn 0.0302 0.0014 -0.9995
vn 0.7609 0.0108 -0.6488
vn -0.7947 0.0695 -0.6031
vn -0.7677 -0.0000 -0.6408
vn -0.8597 0.4167 -0.2955
vn 0.7778 -0.0000 0.6285
vn 0.8033 0.0690 0.5916
vn 0.0348 0.1666 0.9854
vn 0.0380 0.0001 0.9993
vn 0.0401 0.8621 0.5052
vn -0.7778 -0.0000 0.6285
vn -0.8033 0.0690 0.5916
vn -0.8626 0.4148 0.2894
vn -0.0349 0.1666 0.9854
vn -0.0378 -0.0000 0.9993
vn -0.0401 0.8621 0.5052
vn -0.0389 0.8625 -0.5046
vn -0.0323 0.1669 -0.9855
vn -0.0346 0.0001 -0.9994
vt 0.046061 0.121571
vt 0.023347 0.099698
vt 0.323522 0.099691
vt 0.323523 0.121564
vt 0.008745 0.518650
vt 0.008745 0.114300
vt 0.031459 0.136173
vt 0.031459 0.524144
vt 0.865830 0.136168
vt 0.888540 0.114293
vt 0.888540 0.518643
vt 0.865829 0.524138
vt 0.873939 0.099692
vt 0.851228 0.121567
vt 0.573766 0.121574
vt 0.573764 0.099699
vt 0.448643 0.099695
vt 0.448641 0.121573
vt 0.031467 0.940611
vt 0.008753 0.964891
vt 0.008746 0.719099
vt 0.031461 0.717531
vt 0.023355 0.979492
vt 0.046068 0.955206
vt 0.323531 0.954847
vt 0.338773 0.979485
vt 0.317861 0.747663
vt 0.317868 0.936391
vt 0.070605 0.936391
vt 0.062227 0.926161
vt 0.062223 0.747833
vt 0.323523 0.136163
vt 0.323523 0.523993
vt 0.851236 0.955201
vt 0.873947 0.979486
vt 0.558528 0.979493
vt 0.573773 0.954857
vt 0.888548 0.964884
vt 0.865837 0.940605
vt 0.865831 0.717526
vt 0.888542 0.719092
vt 0.579276 0.747858
vt 0.835071 0.747851
vt 0.835078 0.926157
vt 0.826701 0.936387
vt 0.579410 0.936399
vt 0.448642 0.136162
vt 0.573761 0.136162
vt 0.573613 0.524149
vt 0.448568 0.524071
vt 0.323525 0.717322
vt 0.573558 0.717539
vt 0.865829 0.653461
vt 0.888540 0.653426
vt 0.573565 0.653479
vt 0.448544 0.653374
vt 0.448542 0.717430
vt 0.031459 0.653467
vt 0.323523 0.653270
vt 0.008745 0.653433
vt 0.338767 0.748719
vt 0.558338 0.748937
vt 0.448514 0.748828
vt 0.349582 0.981031
vt 0.358187 0.974655
vt 0.534915 0.974655
vt 0.541351 0.981031
vt 0.349582 0.767379
vt 0.358187 0.773756
vt 0.541338 0.765976
vt 0.534915 0.773756
vt 0.345726 0.988048
vt 0.345726 0.760363
vt 0.548796 0.760926
vt 0.547017 0.988456
vt 0.385531 0.787568
vt 0.385531 0.960843
vt 0.507570 0.787568
vt 0.507570 0.960843
vt 0.393976 0.794588
vt 0.393976 0.953823
vt 0.499223 0.794588
vt 0.499223 0.953823
vt 0.922547 0.720576
vt 0.939922 0.720576
vt 0.940715 0.710733
vt 0.926390 0.704029
vt 0.946320 0.669873
vt 0.953449 0.710604
vt 0.900657 0.720576
vt 0.920957 0.677096
vt 0.927767 0.932090
vt 0.922085 0.956041
vt 0.946887 0.959746
vt 0.940959 0.929125
vt 0.974267 0.674974
vt 0.966713 0.704029
vt 0.970883 0.720576
vt 0.994879 0.720576
vt 0.953875 0.720576
vt 0.974012 0.955448
vt 0.966897 0.932535
vt 0.954150 0.929125
vt 0.970883 0.916722
vt 0.994879 0.916722
vt 0.953875 0.916722
vt 0.939922 0.916722
vt 0.922547 0.916722
vt 0.900657 0.916722
vt 0.922547 0.071647
vt 0.939922 0.071647
vt 0.940715 0.061805
vt 0.926390 0.055100
vt 0.946320 0.020945
vt 0.953449 0.061676
vt 0.900657 0.071647
vt 0.920957 0.028168
vt 0.927767 0.283161
vt 0.922085 0.307113
vt 0.946887 0.310818
vt 0.940959 0.280197
vt 0.974267 0.026045
vt 0.966713 0.055100
vt 0.970883 0.071647
vt 0.994879 0.071647
vt 0.953875 0.071647
vt 0.974012 0.306520
vt 0.966897 0.283606
vt 0.954150 0.280197
vt 0.970883 0.267794
vt 0.994879 0.267794
vt 0.953875 0.267794
vt 0.939922 0.267794
vt 0.922547 0.267794
vt 0.900657 0.267794
vt 0.922547 0.379307
vt 0.939922 0.379307
vt 0.940715 0.369464
vt 0.926390 0.362760
vt 0.946320 0.328604
vt 0.953449 0.369335
vt 0.900657 0.379307
vt 0.920957 0.335827
vt 0.927767 0.590821
vt 0.922085 0.614772
vt 0.946887 0.618477
vt 0.940959 0.587856
vt 0.974267 0.333705
vt 0.966713 0.362760
vt 0.970883 0.379307
vt 0.994879 0.379307
vt 0.953875 0.379307
vt 0.974012 0.614179
vt 0.966897 0.591265
vt 0.954150 0.587856
vt 0.970883 0.575453
vt 0.994879 0.575453
vt 0.953875 0.575453
vt 0.939922 0.575453
vt 0.922547 0.575453
vt 0.900657 0.575453
s 1
usemtl Component_Needy_background_mat
f 18/1/1 15/2/1 2/3/2 1/4/3
f 57/5/4 16/6/4 17/7/4 58/8/4
f 21/9/5 19/10/5 63/11/5 62/12/5
f 20/13/1 22/14/1 4/15/6 3/16/7
f 56/17/1 3/16/7 4/15/6 55/18/1
f 26/19/8 23/20/9 7/21/10 6/22/11
f 24/23/12 25/24/13 9/25/14 8/26/15
f 31/27/16 32/28/17 33/29/18 34/30/18 35/31/19
f 17/7/20 41/32/21 59/33/22 58/8/23
f 30/34/24 27/35/25 12/36/26 11/37/27
f 28/38/28 29/39/29 14/40/30 13/41/31
f 36/42/32 37/43/33 38/44/34 39/45/34 40/46/35
f 54/47/36 42/48/37 61/49/38 60/50/39
f 42/48/37 21/9/40 62/12/41 61/49/38
f 16/6/42 15/2/42 18/1/42 17/7/42
f 20/13/43 19/10/43 21/9/43 22/14/43
f 24/23/44 23/20/44 26/19/45 25/24/46
f 28/38/47 27/35/47 30/34/48 29/39/49
f 5/51/50 9/25/51 32/28/17 31/27/16
f 9/25/14 25/24/13 33/29/52 32/28/53
f 25/24/46 26/19/45 34/30/54 33/29/54
f 26/19/8 6/22/11 35/31/55 34/30/56
f 6/22/57 5/51/58 31/27/16 35/31/19
f 10/52/59 14/40/60 37/43/33 36/42/32
f 14/40/30 29/39/29 38/44/61 37/43/62
f 29/39/49 30/34/48 39/45/63 38/44/63
f 30/34/24 11/37/27 40/46/64 39/45/65
f 11/37/66 10/52/67 36/42/32 40/46/35
f 1/4/68 41/32/21 17/7/20 18/1/69
f 4/15/70 42/48/37 54/47/36 55/18/71
f 22/14/72 21/9/40 42/48/37 4/15/70
f 44/53/73 43/54/74 13/41/31 14/40/30
f 45/55/75 44/53/76 14/40/60 10/52/59
f 53/56/77 45/55/75 10/52/59 52/57/78
f 47/58/79 46/59/80 5/51/58 6/22/57
f 7/21/10 48/60/81 47/58/82 6/22/11
f 9/25/51 5/51/50 49/61/83 8/26/83
f 52/57/84 10/52/84 50/62/84 51/63/84
f 10/52/67 11/37/66 12/36/85 50/62/85
f 5/51/84 52/57/84 51/63/84 49/61/84
f 46/59/80 53/56/77 52/57/78 5/51/58
f 41/32/21 54/47/36 60/50/39 59/33/22
f 55/18/71 54/47/36 41/32/21 1/4/68
f 2/3/86 56/17/1 55/18/1 1/4/87
f 62/12/5 63/11/5 43/54/74 44/53/73
f 61/49/38 62/12/41 44/53/76 45/55/75
f 60/50/39 61/49/38 45/55/75 53/56/77
f 59/33/22 60/50/39 53/56/77 46/59/80
f 58/8/23 59/33/22 46/59/80 47/58/79
f 48/60/81 57/5/4 58/8/4 47/58/82
f 72/64/88 73/65/88 79/66/88 78/67/88
f 73/65/89 72/64/89 74/68/89 75/69/89
f 75/69/90 74/68/90 76/70/90 77/71/90
f 77/71/91 76/70/91 78/67/91 79/66/91
f 64/72/92 65/73/92 74/68/92 72/64/92
f 65/73/83 67/74/83 76/70/83 74/68/83
f 67/74/93 66/75/93 78/67/93 76/70/93
f 66/75/94 64/72/94 72/64/94 78/67/94
f 73/65/95 75/69/95 69/76/96 68/77/97
f 75/69/95 77/71/95 70/78/98 69/76/96
f 77/71/95 79/66/95 71/79/99 70/78/98
f 79/66/95 73/65/95 68/77/97 71/79/99
f 68/77/97 69/76/96 81/80/100 80/81/101
f 69/76/96 70/78/98 82/82/102 81/80/100
f 70/78/98 71/79/99 83/83/103 82/82/102
f 71/79/99 68/77/97 80/81/101 83/83/103
f 102/84/104 101/85/105 92/86/106 89/87/107
f 97/88/108 92/86/106 93/89/109
f 103/90/110 102/84/104 89/87/107 85/91/111
f 90/92/112 87/93/113 96/94/114 95/95/115
f 84/96/116 88/97/117 99/98/118 98/99/119
f 88/97/117 93/89/109 100/100/120 99/98/118
f 100/100/120 93/89/109 92/86/106 101/85/105
f 96/94/114 86/101/121 91/102/122 94/103/123
f 94/103/123 95/95/115 96/94/114
f 97/88/108 85/91/111 89/87/107 92/86/106
f 93/89/109 88/97/117 84/96/116 97/88/108
f 105/104/124 104/105/125 98/99/119 99/98/118
f 106/106/126 105/104/124 99/98/118 100/100/120
f 107/107/127 106/106/126 100/100/120 101/85/105
f 108/108/128 107/107/127 101/85/105 102/84/104
f 109/109/129 108/108/128 102/84/104 103/90/110
f 104/105/125 105/104/124 91/102/122 86/101/121
f 106/106/126 94/103/123 91/102/122 105/104/124
f 94/103/123 106/106/126 107/107/127 95/95/115
f 90/92/112 95/95/115 107/107/127 108/108/128
f 87/93/113 90/92/112 108/108/128 109/109/129
f 128/110/130 127/111/131 118/112/132 115/113/133
f 123/114/114 118/112/132 119/115/134
f 129/116/135 128/110/130 115/113/133 111/117/136
f 116/118/137 113/119/138 122/120/108 121/121/139
f 110/122/140 114/123/141 125/124/142 124/125/143
f 114/123/141 119/115/134 126/126/144 125/124/142
f 126/126/144 119/115/134 118/112/132 127/111/131
f 122/120/108 112/127/145 117/128/146 120/129/147
f 120/129/147 121/121/139 122/120/108
f 123/114/114 111/117/136 115/113/133 118/112/132
f 119/115/134 114/123/141 110/122/140 123/114/114
f 131/130/148 130/131/149 124/125/143 125/124/142
f 132/132/150 131/130/148 125/124/142 126/126/144
f 133/133/151 132/132/150 126/126/144 127/111/131
f 134/134/152 133/133/151 127/111/131 128/110/130
f 135/135/153 134/134/152 128/110/130 129/116/135
f 130/131/149 131/130/148 117/128/146 112/127/145
f 132/132/150 120/129/147 117/128/146 131/130/148
f 120/129/147 132/132/150 133/133/151 121/121/139
f 116/118/137 121/121/139 133/133/151 134/134/152
f 113/119/138 116/118/137 134/134/152 135/135/153
f 154/136/154 153/137/155 144/138/156 141/139/157
f 149/140/83 144/138/156 145/141/158
f 155/142/159 154/136/154 141/139/157 137/143/160
f 142/144/161 139/145/162 148/146/94 147/147/163
f 136/148/164 140/149/165 151/150/166 150/151/167
f 140/149/165 145/141/158 152/152/168 151/150/166
f 152/152/168 145/141/158 144/138/156 153/137/155
f 148/146/94 138/153/169 143/154/170 146/155/171
f 146/155/171 147/147/163 148/146/94
f 149/140/83 137/143/160 141/139/157 144/138/156
f 145/141/158 140/149/165 136/148/164 149/140/83
f 157/156/172 156/157/173 150/151/167 151/150/166
f 158/158/174 157/156/172 151/150/166 152/152/168
f 159/159/175 158/158/174 152/152/168 153/137/155
f 160/160/176 159/159/175 153/137/155 154/136/154
f 161/161/177 160/160/176 154/136/154 155/142/159
f 156/157/173 157/156/172 143/154/170 138/153/169
f 158/158/174 146/155/171 143/154/170 157/156/172
f 146/155/171 158/158/174 159/159/175 147/147/163
f 142/144/161 147/147/163 159/159/175 160/160/176
f 139/145/162 142/144/161 160/160/176 161/161/177
